<svg xmlns="http://www.w3.org/2000/svg" viewBox="-40 -40 80 80" width="80" height="80">
  <defs/>
  <g>
    <path stroke="none" fill="#FFFFFF" d="M 0 -10 Q 5 -10 8 -6 11 -2 11 4 11 10 7 14 3 18 -2 18 L -2 28 Q -1 28 -1 28 L -4 28 -4 18 Q -9 17 -13 13 -17 9 -17 3 -17 -3 -13 -7 -9 -11 -3 -11 L 0 -10 M 0 -14 Q -5 -18 -5 -25 -5 -28 -3 -28 -1 -28 0 -25 1 -28 3 -28 5 -28 5 -25 5 -18 0 -14 M 14 -6 Q 18 -1 18 6 18 8 16 8 14 8 13 6 12 8 10 8 8 8 8 6 12 0 8 -6 L 14 -6 M -14 -6 Q -18 -1 -18 6 -18 8 -16 8 -14 8 -13 6 -12 8 -10 8 -8 8 -8 6 -12 0 -8 -6 L -14 -6 M -8 14 Q -14 16 -20 14 -22 13 -22 11 -22 9 -20 9 -22 7 -22 5 -22 3 -20 4 -16 6 -10 10 L -8 14 M 8 14 Q 14 16 20 14 22 13 22 11 22 9 20 9 22 7 22 5 22 3 20 4 16 6 10 10 L 8 14"/>
  </g>
</svg>
